<svg xmlns="http://www.w3.org/2000/svg" width="26" height="22" viewBox="0 0 26 22">
    <defs>
        <style>
            .cls-1 {
            fill: #fff;
            fill-rule: evenodd;
            }
        </style>
    </defs>
    <path id="Chat" class="cls-1"
          d="M855,43s-2.7.01-5.014,0.01c0.011,0.959.008,2.472-.013,2.61a0.734,0.734,0,0,1-.959.291A11.147,11.147,0,0,1,846.938,43H842c-0.827,0-.985-0.321-0.985-1.153V40.984c0.242,0.009,1.033.028,1.033,0.028l-0.034.977L847.937,42,849,44V42.006h6V33.019h-6.02V32.035H854.5A1.245,1.245,0,0,1,856,33.2v8.654C856,42.683,855.827,43,855,43Zm-13.985-2.025h-1.609c-0.692.61-1.972,1.731-2.669,2.308A0.7,0.7,0,0,1,835.81,43c-0.021-.138-0.024-1.058-0.013-2.017h-4.672A0.942,0.942,0,0,1,830,39.847V25.1c0-.832.14-1.1,0.967-1.1h16.983c0.826,0,1.028.237,1.028,1.069V39.223a1.817,1.817,0,0,1-1.591,1.756h-6.374v0.005C840.932,40.981,840.912,40.979,841.015,40.979Zm6.941-1,0.034-14.954L831,25.035V39.979h5.945l0.012,1.961,2.02-1.961h8.976Zm-13.3-4.4V35.54a0.54,0.54,0,0,1,.511-0.545h9.065a0.557,0.557,0,0,1,.511.563v0.026a0.456,0.456,0,0,1-.511.443h-9.065A0.456,0.456,0,0,1,834.657,35.583Zm7.33-5.55h-6.819a0.456,0.456,0,0,1-.511-0.443V29.546A0.54,0.54,0,0,1,835.168,29h6.819a0.557,0.557,0,0,1,.511.563V29.59A0.457,0.457,0,0,1,841.987,30.033Zm-6.819,1.981h4.573a0.528,0.528,0,0,1,.511.532v0.025a0.456,0.456,0,0,1-.511.443h-4.573a0.456,0.456,0,0,1-.511-0.443V32.527A0.512,0.512,0,0,1,835.168,32.013Z"
          transform="translate(-830 -24)"/>
</svg>
