<svg xmlns="http://www.w3.org/2000/svg" width="24" height="24" viewBox="0 0 24 24">
    <defs>
        <style>
            .cls-1 {
            fill: #fff;
            fill-rule: evenodd;
            }
        </style>
    </defs>
    <path id="Notifications" class="cls-1"
          d="M899.924,42.677a0.7,0.7,0,0,1-.642.375H876.738a0.7,0.7,0,0,1-.642-0.375,1.283,1.283,0,0,1-.091-0.493,0.706,0.706,0,0,1,.144-0.4,16.377,16.377,0,0,0,2.108-4.369A31.868,31.868,0,0,0,880,31c0.222-1.694.469-3.386,1.241-4.3a7.437,7.437,0,0,1,1.336-1.241,8.252,8.252,0,0,1,2.762-1.332,2.6,2.6,0,0,1,.943-1.512A2.669,2.669,0,0,1,888,22a2.7,2.7,0,0,1,1.728.608,2.576,2.576,0,0,1,.956,1.512,8.244,8.244,0,0,1,2.749,1.332,7.342,7.342,0,0,1,1.335,1.241,8,8,0,0,1,1.7,4.047,42.515,42.515,0,0,0,1.284,6.67,17.086,17.086,0,0,0,2.12,4.527,0.665,0.665,0,0,1,.131.388A0.85,0.85,0,0,1,899.924,42.677Zm-3.758-5.587a52.606,52.606,0,0,1-1.152-6.166,6.667,6.667,0,0,0-1.44-3.413,6,6,0,0,0-1.165-1.021,7.232,7.232,0,0,0-2.566-1.1,0.717,0.717,0,0,1-.563-0.685V24.68A1.256,1.256,0,0,0,888,23.439a1.271,1.271,0,0,0-1.283,1.241v0.026a0.691,0.691,0,0,1-.537.685,7.318,7.318,0,0,0-2.579,1.1,6.02,6.02,0,0,0-2.6,4.434,57.621,57.621,0,0,1-1.152,6.179A21.267,21.267,0,0,1,878,42h20A21.842,21.842,0,0,1,896.166,37.09Zm-6.657,8.285a2.016,2.016,0,0,1-1.5.631,2.075,2.075,0,0,1-1.516-.631,2.011,2.011,0,0,1-.626-1.483h4.269A2.052,2.052,0,0,1,889.509,45.375Z"
          transform="translate(-876 -22)"/>
</svg>
