<svg xmlns="http://www.w3.org/2000/svg" width="16" height="16" viewBox="0 0 16 16">
    <defs>
        <style>
            .cls-1 {
            fill: #8ebc4d;
            fill-rule: evenodd;
            }
        </style>
    </defs>
    <path id="Search" class="cls-1"
          d="M381.747,26A6.76,6.76,0,1,1,375,32.76,6.753,6.753,0,0,1,381.747,26Zm0.016,1.211a5.564,5.564,0,1,1-5.547,5.564A5.556,5.556,0,0,1,381.763,27.211Zm9.039,14.61a0.576,0.576,0,0,1-.815,0l-4.047-4.014a0.577,0.577,0,1,1,.815-0.817L390.8,41A0.578,0.578,0,0,1,390.8,41.821Z"
          transform="translate(-375 -26)"/>
</svg>
